# Blender v2.80 (sub 75) OBJ File: ''
# www.blender.org
mtllib rocket.mtl
o Цилиндр.001
v 0.000000 1.000000 -2.750000
v 0.000000 1.000000 1.250000
v 0.195090 0.980785 -2.750000
v 0.195090 0.980785 1.250000
v 0.382683 0.923880 -2.750000
v 0.382683 0.923879 1.250000
v 0.555570 0.831470 -2.750000
v 0.555570 0.831470 1.250000
v 0.707107 0.707107 -2.750000
v 0.707107 0.707107 1.250000
v 0.831470 0.555570 -2.750000
v 0.831470 0.555570 1.250000
v 0.923880 0.382684 -2.750000
v 0.923880 0.382683 1.250000
v 0.980785 0.195090 -2.750000
v 0.980785 0.195090 1.250000
v 1.000000 0.000000 -2.750000
v 1.000000 -0.000000 1.250000
v 0.980785 -0.195090 -2.750000
v 0.980785 -0.195090 1.250000
v 0.923880 -0.382683 -2.750000
v 0.923880 -0.382683 1.250000
v 0.831470 -0.555570 -2.750000
v 0.831470 -0.555570 1.250000
v 0.707107 -0.707107 -2.750000
v 0.707107 -0.707107 1.250000
v 0.555570 -0.831470 -2.750000
v 0.555570 -0.831470 1.250000
v 0.382683 -0.923880 -2.750000
v 0.382683 -0.923880 1.250000
v 0.195090 -0.980785 -2.750000
v 0.195090 -0.980785 1.250000
v -0.000000 -1.000000 -2.750000
v -0.000000 -1.000000 1.250000
v -0.195091 -0.980785 -2.750000
v -0.195091 -0.980785 1.250000
v -0.382684 -0.923879 -2.750000
v -0.382684 -0.923879 1.250000
v -0.555571 -0.831469 -2.750000
v -0.555571 -0.831469 1.250000
v -0.707107 -0.707106 -2.750000
v -0.707107 -0.707106 1.250000
v -0.831470 -0.555570 -2.750000
v -0.831470 -0.555570 1.250000
v -0.923880 -0.382683 -2.750000
v -0.923880 -0.382683 1.250000
v -0.980785 -0.195089 -2.750000
v -0.980785 -0.195090 1.250000
v -1.000000 0.000001 -2.750000
v -1.000000 0.000001 1.250000
v -0.980785 0.195091 -2.750000
v -0.980785 0.195091 1.250000
v -0.923879 0.382685 -2.750000
v -0.923879 0.382684 1.250000
v -0.831469 0.555571 -2.750000
v -0.831469 0.555571 1.250000
v -0.707106 0.707108 -2.750000
v -0.707106 0.707108 1.250000
v -0.555569 0.831470 -2.750000
v -0.555569 0.831470 1.250000
v -0.382682 0.923880 -2.750000
v -0.382682 0.923880 1.250000
v -0.195089 0.980786 -2.750000
v -0.195089 0.980785 1.250000
vt 1.000000 0.500000
vt 1.000000 1.000000
vt 0.968750 1.000000
vt 0.968750 0.500000
vt 0.937500 1.000000
vt 0.937500 0.500000
vt 0.906250 1.000000
vt 0.906250 0.500000
vt 0.875000 1.000000
vt 0.875000 0.500000
vt 0.843750 1.000000
vt 0.843750 0.500000
vt 0.812500 1.000000
vt 0.812500 0.500000
vt 0.781250 1.000000
vt 0.781250 0.500000
vt 0.750000 1.000000
vt 0.750000 0.500000
vt 0.718750 1.000000
vt 0.718750 0.500000
vt 0.687500 1.000000
vt 0.687500 0.500000
vt 0.656250 1.000000
vt 0.656250 0.500000
vt 0.625000 1.000000
vt 0.625000 0.500000
vt 0.593750 1.000000
vt 0.593750 0.500000
vt 0.562500 1.000000
vt 0.562500 0.500000
vt 0.531250 1.000000
vt 0.531250 0.500000
vt 0.500000 1.000000
vt 0.500000 0.500000
vt 0.468750 1.000000
vt 0.468750 0.500000
vt 0.437500 1.000000
vt 0.437500 0.500000
vt 0.406250 1.000000
vt 0.406250 0.500000
vt 0.375000 1.000000
vt 0.375000 0.500000
vt 0.343750 1.000000
vt 0.343750 0.500000
vt 0.312500 1.000000
vt 0.312500 0.500000
vt 0.281250 1.000000
vt 0.281250 0.500000
vt 0.250000 1.000000
vt 0.250000 0.500000
vt 0.218750 1.000000
vt 0.218750 0.500000
vt 0.187500 1.000000
vt 0.187500 0.500000
vt 0.156250 1.000000
vt 0.156250 0.500000
vt 0.125000 1.000000
vt 0.125000 0.500000
vt 0.093750 1.000000
vt 0.093750 0.500000
vt 0.062500 1.000000
vt 0.062500 0.500000
vt 0.296822 0.485388
vt 0.250000 0.490000
vt 0.203179 0.485389
vt 0.158156 0.471731
vt 0.116663 0.449553
vt 0.080295 0.419706
vt 0.050447 0.383337
vt 0.028269 0.341844
vt 0.014612 0.296822
vt 0.010000 0.250000
vt 0.014611 0.203179
vt 0.028269 0.158156
vt 0.050447 0.116663
vt 0.080294 0.080294
vt 0.116663 0.050447
vt 0.158156 0.028269
vt 0.203178 0.014612
vt 0.250000 0.010000
vt 0.296822 0.014612
vt 0.341844 0.028269
vt 0.383337 0.050447
vt 0.419706 0.080294
vt 0.449553 0.116663
vt 0.471731 0.158156
vt 0.485388 0.203178
vt 0.490000 0.250000
vt 0.485388 0.296822
vt 0.471731 0.341844
vt 0.449553 0.383337
vt 0.419706 0.419706
vt 0.383337 0.449553
vt 0.341844 0.471731
vt 0.031250 1.000000
vt 0.031250 0.500000
vt 0.000000 1.000000
vt 0.000000 0.500000
vt 0.750000 0.490000
vt 0.796822 0.485388
vt 0.841844 0.471731
vt 0.883337 0.449553
vt 0.919706 0.419706
vt 0.949553 0.383337
vt 0.971731 0.341844
vt 0.985388 0.296822
vt 0.990000 0.250000
vt 0.985388 0.203178
vt 0.971731 0.158156
vt 0.949553 0.116663
vt 0.919706 0.080294
vt 0.883337 0.050447
vt 0.841844 0.028269
vt 0.796822 0.014612
vt 0.750000 0.010000
vt 0.703178 0.014612
vt 0.658156 0.028269
vt 0.616663 0.050447
vt 0.580294 0.080294
vt 0.550447 0.116663
vt 0.528269 0.158156
vt 0.514611 0.203179
vt 0.510000 0.250000
vt 0.514612 0.296822
vt 0.528269 0.341844
vt 0.550447 0.383337
vt 0.580295 0.419706
vt 0.616663 0.449553
vt 0.658156 0.471731
vt 0.703179 0.485389
vn 0.0980 0.9952 0.0000
vn 0.2903 0.9569 0.0000
vn 0.4714 0.8819 0.0000
vn 0.6344 0.7730 0.0000
vn 0.7730 0.6344 0.0000
vn 0.8819 0.4714 0.0000
vn 0.9569 0.2903 0.0000
vn 0.9952 0.0980 0.0000
vn 0.9952 -0.0980 -0.0000
vn 0.9569 -0.2903 -0.0000
vn 0.8819 -0.4714 -0.0000
vn 0.7730 -0.6344 -0.0000
vn 0.6344 -0.7730 -0.0000
vn 0.4714 -0.8819 -0.0000
vn 0.2903 -0.9569 -0.0000
vn 0.0980 -0.9952 -0.0000
vn -0.0980 -0.9952 -0.0000
vn -0.2903 -0.9569 -0.0000
vn -0.4714 -0.8819 -0.0000
vn -0.6344 -0.7730 -0.0000
vn -0.7730 -0.6344 -0.0000
vn -0.8819 -0.4714 -0.0000
vn -0.9569 -0.2903 -0.0000
vn -0.9952 -0.0980 -0.0000
vn -0.9952 0.0980 0.0000
vn -0.9569 0.2903 0.0000
vn -0.8819 0.4714 0.0000
vn -0.7730 0.6344 0.0000
vn -0.6344 0.7730 0.0000
vn -0.4714 0.8819 0.0000
vn -0.0000 0.0000 1.0000
vn -0.2903 0.9569 0.0000
vn -0.0980 0.9952 0.0000
vn -0.0000 0.0000 -1.0000
usemtl None
s off
f 1/1/1 2/2/1 4/3/1 3/4/1
f 3/4/2 4/3/2 6/5/2 5/6/2
f 5/6/3 6/5/3 8/7/3 7/8/3
f 7/8/4 8/7/4 10/9/4 9/10/4
f 9/10/5 10/9/5 12/11/5 11/12/5
f 11/12/6 12/11/6 14/13/6 13/14/6
f 13/14/7 14/13/7 16/15/7 15/16/7
f 15/16/8 16/15/8 18/17/8 17/18/8
f 17/18/9 18/17/9 20/19/9 19/20/9
f 19/20/10 20/19/10 22/21/10 21/22/10
f 21/22/11 22/21/11 24/23/11 23/24/11
f 23/24/12 24/23/12 26/25/12 25/26/12
f 25/26/13 26/25/13 28/27/13 27/28/13
f 27/28/14 28/27/14 30/29/14 29/30/14
f 29/30/15 30/29/15 32/31/15 31/32/15
f 31/32/16 32/31/16 34/33/16 33/34/16
f 33/34/17 34/33/17 36/35/17 35/36/17
f 35/36/18 36/35/18 38/37/18 37/38/18
f 37/38/19 38/37/19 40/39/19 39/40/19
f 39/40/20 40/39/20 42/41/20 41/42/20
f 41/42/21 42/41/21 44/43/21 43/44/21
f 43/44/22 44/43/22 46/45/22 45/46/22
f 45/46/23 46/45/23 48/47/23 47/48/23
f 47/48/24 48/47/24 50/49/24 49/50/24
f 49/50/25 50/49/25 52/51/25 51/52/25
f 51/52/26 52/51/26 54/53/26 53/54/26
f 53/54/27 54/53/27 56/55/27 55/56/27
f 55/56/28 56/55/28 58/57/28 57/58/28
f 57/58/29 58/57/29 60/59/29 59/60/29
f 59/60/30 60/59/30 62/61/30 61/62/30
f 4/63/31 2/64/31 64/65/31 62/66/31 60/67/31 58/68/31 56/69/31 54/70/31 52/71/31 50/72/31 48/73/31 46/74/31 44/75/31 42/76/31 40/77/31 38/78/31 36/79/31 34/80/31 32/81/31 30/82/31 28/83/31 26/84/31 24/85/31 22/86/31 20/87/31 18/88/31 16/89/31 14/90/31 12/91/31 10/92/31 8/93/31 6/94/31
f 61/62/32 62/61/32 64/95/32 63/96/32
f 63/96/33 64/95/33 2/97/33 1/98/33
f 1/99/34 3/100/34 5/101/34 7/102/34 9/103/34 11/104/34 13/105/34 15/106/34 17/107/34 19/108/34 21/109/34 23/110/34 25/111/34 27/112/34 29/113/34 31/114/34 33/115/34 35/116/34 37/117/34 39/118/34 41/119/34 43/120/34 45/121/34 47/122/34 49/123/34 51/124/34 53/125/34 55/126/34 57/127/34 59/128/34 61/129/34 63/130/34
o Конус.003
v 0.000000 1.000000 1.250000
v 0.195090 0.980785 1.250000
v 0.382683 0.923880 1.250000
v 0.555570 0.831470 1.250000
v 0.707107 0.707107 1.250000
v 0.831470 0.555570 1.250000
v 0.923880 0.382683 1.250000
v 0.980785 0.195090 1.250000
v 1.000000 0.000000 1.250000
v 0.980785 -0.195090 1.250000
v 0.923880 -0.382683 1.250000
v 0.831470 -0.555570 1.250000
v 0.707107 -0.707107 1.250000
v 0.555570 -0.831470 1.250000
v 0.382683 -0.923880 1.250000
v 0.195090 -0.980785 1.250000
v -0.000000 -1.000000 1.250000
v -0.195091 -0.980785 1.250000
v -0.382684 -0.923879 1.250000
v -0.555571 -0.831469 1.250000
v -0.707107 -0.707106 1.250000
v -0.831470 -0.555570 1.250000
v -0.923880 -0.382683 1.250000
v 0.000000 -0.000000 3.250000
v -0.980785 -0.195089 1.250000
v -1.000000 0.000001 1.250000
v -0.980785 0.195091 1.250000
v -0.923879 0.382684 1.250000
v -0.831469 0.555571 1.250000
v -0.707106 0.707108 1.250000
v -0.555569 0.831470 1.250000
v -0.382682 0.923880 1.250000
v -0.195089 0.980786 1.250000
vt 0.250000 0.490000
vt 0.250000 0.250000
vt 0.296822 0.485388
vt 0.341844 0.471731
vt 0.383337 0.449553
vt 0.419706 0.419706
vt 0.449553 0.383337
vt 0.471731 0.341844
vt 0.485388 0.296822
vt 0.490000 0.250000
vt 0.485388 0.203178
vt 0.471731 0.158156
vt 0.449553 0.116663
vt 0.419706 0.080294
vt 0.383337 0.050447
vt 0.341844 0.028269
vt 0.296822 0.014612
vt 0.250000 0.010000
vt 0.203178 0.014612
vt 0.158156 0.028269
vt 0.116663 0.050447
vt 0.080294 0.080294
vt 0.050447 0.116663
vt 0.028269 0.158156
vt 0.014611 0.203179
vt 0.010000 0.250000
vt 0.014612 0.296822
vt 0.028269 0.341844
vt 0.050447 0.383337
vt 0.080295 0.419706
vt 0.116663 0.449553
vt 0.158156 0.471731
vt 0.203179 0.485389
vt 0.750000 0.490000
vt 0.796822 0.485388
vt 0.841844 0.471731
vt 0.883337 0.449553
vt 0.919706 0.419706
vt 0.949553 0.383337
vt 0.971731 0.341844
vt 0.985388 0.296822
vt 0.990000 0.250000
vt 0.985388 0.203178
vt 0.971731 0.158156
vt 0.949553 0.116663
vt 0.919706 0.080294
vt 0.883337 0.050447
vt 0.841844 0.028269
vt 0.796822 0.014612
vt 0.750000 0.010000
vt 0.703178 0.014612
vt 0.658156 0.028269
vt 0.616663 0.050447
vt 0.580294 0.080294
vt 0.550447 0.116663
vt 0.528269 0.158156
vt 0.514611 0.203179
vt 0.510000 0.250000
vt 0.514612 0.296822
vt 0.528269 0.341844
vt 0.550447 0.383337
vt 0.580295 0.419706
vt 0.616663 0.449553
vt 0.658156 0.471731
vt 0.703179 0.485389
vn 0.0878 0.8910 0.4455
vn 0.2599 0.8567 0.4455
vn 0.4220 0.7896 0.4455
vn 0.5680 0.6921 0.4455
vn 0.6921 0.5680 0.4455
vn 0.7896 0.4220 0.4455
vn 0.8567 0.2599 0.4455
vn 0.8910 0.0878 0.4455
vn 0.8910 -0.0878 0.4455
vn 0.8567 -0.2599 0.4455
vn 0.7896 -0.4220 0.4455
vn 0.6921 -0.5680 0.4455
vn 0.5680 -0.6921 0.4455
vn 0.4220 -0.7896 0.4455
vn 0.2599 -0.8567 0.4455
vn 0.0878 -0.8910 0.4455
vn -0.0878 -0.8910 0.4455
vn -0.2599 -0.8567 0.4455
vn -0.4220 -0.7896 0.4455
vn -0.5680 -0.6921 0.4455
vn -0.6921 -0.5680 0.4455
vn -0.7896 -0.4220 0.4455
vn -0.8567 -0.2599 0.4455
vn -0.8910 -0.0878 0.4455
vn -0.8910 0.0878 0.4455
vn -0.8567 0.2599 0.4455
vn -0.7896 0.4220 0.4455
vn -0.6921 0.5680 0.4455
vn -0.5680 0.6921 0.4455
vn -0.4220 0.7896 0.4455
vn -0.2599 0.8567 0.4455
vn -0.0878 0.8910 0.4455
vn -0.0000 0.0000 -1.0000
usemtl None
s off
f 65/131/35 88/132/35 66/133/35
f 66/133/36 88/132/36 67/134/36
f 67/134/37 88/132/37 68/135/37
f 68/135/38 88/132/38 69/136/38
f 69/136/39 88/132/39 70/137/39
f 70/137/40 88/132/40 71/138/40
f 71/138/41 88/132/41 72/139/41
f 72/139/42 88/132/42 73/140/42
f 73/140/43 88/132/43 74/141/43
f 74/141/44 88/132/44 75/142/44
f 75/142/45 88/132/45 76/143/45
f 76/143/46 88/132/46 77/144/46
f 77/144/47 88/132/47 78/145/47
f 78/145/48 88/132/48 79/146/48
f 79/146/49 88/132/49 80/147/49
f 80/147/50 88/132/50 81/148/50
f 81/148/51 88/132/51 82/149/51
f 82/149/52 88/132/52 83/150/52
f 83/150/53 88/132/53 84/151/53
f 84/151/54 88/132/54 85/152/54
f 85/152/55 88/132/55 86/153/55
f 86/153/56 88/132/56 87/154/56
f 87/154/57 88/132/57 89/155/57
f 89/155/58 88/132/58 90/156/58
f 90/156/59 88/132/59 91/157/59
f 91/157/60 88/132/60 92/158/60
f 92/158/61 88/132/61 93/159/61
f 93/159/62 88/132/62 94/160/62
f 94/160/63 88/132/63 95/161/63
f 95/161/64 88/132/64 96/162/64
f 96/162/65 88/132/65 97/163/65
f 97/163/66 88/132/66 65/131/66
f 65/164/67 66/165/67 67/166/67 68/167/67 69/168/67 70/169/67 71/170/67 72/171/67 73/172/67 74/173/67 75/174/67 76/175/67 77/176/67 78/177/67 79/178/67 80/179/67 81/180/67 82/181/67 83/182/67 84/183/67 85/184/67 86/185/67 87/186/67 89/187/67 90/188/67 91/189/67 92/190/67 93/191/67 94/192/67 95/193/67 96/194/67 97/195/67
o Конус.004
v 0.000000 0.300000 -1.750000
v 0.390181 0.294236 -1.750000
v 0.765367 0.277164 -1.750000
v 1.111140 0.249441 -1.750000
v 1.414214 0.212132 -1.750000
v 1.662939 0.166671 -1.750000
v 1.847759 0.114805 -1.750000
v 1.961571 0.058527 -1.750000
v 2.000000 0.000000 -1.750000
v 1.961571 -0.058527 -1.750000
v 1.847759 -0.114805 -1.750000
v 1.662939 -0.166671 -1.750000
v 1.414214 -0.212132 -1.750000
v 1.111140 -0.249441 -1.750000
v 0.765367 -0.277164 -1.750000
v 0.390180 -0.294236 -1.750000
v -0.000001 -0.300000 -1.750000
v -0.390181 -0.294236 -1.750000
v -0.765368 -0.277164 -1.750000
v -1.111141 -0.249441 -1.750000
v -1.414214 -0.212132 -1.750000
v -1.662940 -0.166671 -1.750000
v -1.847760 -0.114805 -1.750000
v 0.000000 -0.000000 0.250000
v -1.961571 -0.058527 -1.750000
v -2.000000 0.000000 -1.750000
v -1.961570 0.058527 -1.750000
v -1.847758 0.114805 -1.750000
v -1.662938 0.166671 -1.750000
v -1.414212 0.212132 -1.750000
v -1.111138 0.249441 -1.750000
v -0.765364 0.277164 -1.750000
v -0.390178 0.294236 -1.750000
vt 0.250000 0.490000
vt 0.250000 0.250000
vt 0.296822 0.485388
vt 0.341844 0.471731
vt 0.383337 0.449553
vt 0.419706 0.419706
vt 0.449553 0.383337
vt 0.471731 0.341844
vt 0.485388 0.296822
vt 0.490000 0.250000
vt 0.485388 0.203178
vt 0.471731 0.158156
vt 0.449553 0.116663
vt 0.419706 0.080294
vt 0.383337 0.050447
vt 0.341844 0.028269
vt 0.296822 0.014612
vt 0.250000 0.010000
vt 0.203178 0.014612
vt 0.158156 0.028269
vt 0.116663 0.050447
vt 0.080294 0.080294
vt 0.050447 0.116663
vt 0.028269 0.158156
vt 0.014611 0.203179
vt 0.010000 0.250000
vt 0.014612 0.296822
vt 0.028269 0.341844
vt 0.050447 0.383337
vt 0.080295 0.419706
vt 0.116663 0.449553
vt 0.158156 0.471731
vt 0.203179 0.485389
vt 0.750000 0.490000
vt 0.796822 0.485388
vt 0.841844 0.471731
vt 0.883337 0.449553
vt 0.919706 0.419706
vt 0.949553 0.383337
vt 0.971731 0.341844
vt 0.985388 0.296822
vt 0.990000 0.250000
vt 0.985388 0.203178
vt 0.971731 0.158156
vt 0.949553 0.116663
vt 0.919706 0.080294
vt 0.883337 0.050447
vt 0.841844 0.028269
vt 0.796822 0.014612
vt 0.750000 0.010000
vt 0.703178 0.014612
vt 0.658156 0.028269
vt 0.616663 0.050447
vt 0.580294 0.080294
vt 0.550447 0.116663
vt 0.528269 0.158156
vt 0.514611 0.203179
vt 0.510000 0.250000
vt 0.514612 0.296822
vt 0.528269 0.341844
vt 0.550447 0.383337
vt 0.580295 0.419706
vt 0.616663 0.449553
vt 0.658156 0.471731
vt 0.703179 0.485389
vn 0.0146 0.9888 0.1483
vn 0.0449 0.9871 0.1540
vn 0.0788 0.9829 0.1664
vn 0.1200 0.9748 0.1882
vn 0.1752 0.9584 0.2255
vn 0.2584 0.9210 0.2916
vn 0.4025 0.8141 0.4186
vn 0.6414 0.4211 0.6414
vn 0.6414 -0.4211 0.6414
vn 0.4025 -0.8141 0.4186
vn 0.2584 -0.9210 0.2916
vn 0.1752 -0.9584 0.2255
vn 0.1200 -0.9748 0.1882
vn 0.0788 -0.9829 0.1664
vn 0.0449 -0.9871 0.1540
vn 0.0146 -0.9888 0.1483
vn -0.0146 -0.9888 0.1483
vn -0.0449 -0.9871 0.1540
vn -0.0788 -0.9829 0.1664
vn -0.1200 -0.9748 0.1882
vn -0.1752 -0.9584 0.2255
vn -0.2584 -0.9210 0.2916
vn -0.4025 -0.8141 0.4186
vn -0.6414 -0.4211 0.6414
vn -0.6413 0.4211 0.6413
vn -0.4025 0.8141 0.4186
vn -0.2584 0.9210 0.2916
vn -0.1752 0.9584 0.2255
vn -0.1200 0.9748 0.1882
vn -0.0788 0.9829 0.1664
vn -0.0449 0.9871 0.1540
vn -0.0146 0.9888 0.1483
vn 0.0000 0.0000 -1.0000
usemtl None
s off
f 98/196/68 121/197/68 99/198/68
f 99/198/69 121/197/69 100/199/69
f 100/199/70 121/197/70 101/200/70
f 101/200/71 121/197/71 102/201/71
f 102/201/72 121/197/72 103/202/72
f 103/202/73 121/197/73 104/203/73
f 104/203/74 121/197/74 105/204/74
f 105/204/75 121/197/75 106/205/75
f 106/205/76 121/197/76 107/206/76
f 107/206/77 121/197/77 108/207/77
f 108/207/78 121/197/78 109/208/78
f 109/208/79 121/197/79 110/209/79
f 110/209/80 121/197/80 111/210/80
f 111/210/81 121/197/81 112/211/81
f 112/211/82 121/197/82 113/212/82
f 113/212/83 121/197/83 114/213/83
f 114/213/84 121/197/84 115/214/84
f 115/214/85 121/197/85 116/215/85
f 116/215/86 121/197/86 117/216/86
f 117/216/87 121/197/87 118/217/87
f 118/217/88 121/197/88 119/218/88
f 119/218/89 121/197/89 120/219/89
f 120/219/90 121/197/90 122/220/90
f 122/220/91 121/197/91 123/221/91
f 123/221/92 121/197/92 124/222/92
f 124/222/93 121/197/93 125/223/93
f 125/223/94 121/197/94 126/224/94
f 126/224/95 121/197/95 127/225/95
f 127/225/96 121/197/96 128/226/96
f 128/226/97 121/197/97 129/227/97
f 129/227/98 121/197/98 130/228/98
f 130/228/99 121/197/99 98/196/99
f 98/229/100 99/230/100 100/231/100 101/232/100 102/233/100 103/234/100 104/235/100 105/236/100 106/237/100 107/238/100 108/239/100 109/240/100 110/241/100 111/242/100 112/243/100 113/244/100 114/245/100 115/246/100 116/247/100 117/248/100 118/249/100 119/250/100 120/251/100 122/252/100 123/253/100 124/254/100 125/255/100 126/256/100 127/257/100 128/258/100 129/259/100 130/260/100
o Конус.005
v -0.300000 0.000000 -1.750000
v -0.294236 0.390181 -1.750000
v -0.277164 0.765367 -1.750000
v -0.249441 1.111140 -1.750000
v -0.212132 1.414214 -1.750000
v -0.166671 1.662939 -1.750000
v -0.114805 1.847759 -1.750000
v -0.058527 1.961571 -1.750000
v 0.000000 2.000000 -1.750000
v 0.058527 1.961571 -1.750000
v 0.114805 1.847759 -1.750000
v 0.166671 1.662939 -1.750000
v 0.212132 1.414214 -1.750000
v 0.249441 1.111140 -1.750000
v 0.277164 0.765367 -1.750000
v 0.294236 0.390180 -1.750000
v 0.300000 -0.000001 -1.750000
v 0.294235 -0.390181 -1.750000
v 0.277164 -0.765368 -1.750000
v 0.249441 -1.111141 -1.750000
v 0.212132 -1.414214 -1.750000
v 0.166671 -1.662940 -1.750000
v 0.114805 -1.847760 -1.750000
v 0.000000 -0.000000 0.250000
v 0.058527 -1.961571 -1.750000
v -0.000000 -2.000000 -1.750000
v -0.058528 -1.961570 -1.750000
v -0.114806 -1.847758 -1.750000
v -0.166672 -1.662938 -1.750000
v -0.212132 -1.414212 -1.750000
v -0.249441 -1.111138 -1.750000
v -0.277164 -0.765364 -1.750000
v -0.294236 -0.390178 -1.750000
vt 0.250000 0.490000
vt 0.250000 0.250000
vt 0.296822 0.485388
vt 0.341844 0.471731
vt 0.383337 0.449553
vt 0.419706 0.419706
vt 0.449553 0.383337
vt 0.471731 0.341844
vt 0.485388 0.296822
vt 0.490000 0.250000
vt 0.485388 0.203178
vt 0.471731 0.158156
vt 0.449553 0.116663
vt 0.419706 0.080294
vt 0.383337 0.050447
vt 0.341844 0.028269
vt 0.296822 0.014612
vt 0.250000 0.010000
vt 0.203178 0.014612
vt 0.158156 0.028269
vt 0.116663 0.050447
vt 0.080294 0.080294
vt 0.050447 0.116663
vt 0.028269 0.158156
vt 0.014611 0.203179
vt 0.010000 0.250000
vt 0.014612 0.296822
vt 0.028269 0.341844
vt 0.050447 0.383337
vt 0.080295 0.419706
vt 0.116663 0.449553
vt 0.158156 0.471731
vt 0.203179 0.485389
vt 0.750000 0.490000
vt 0.796822 0.485388
vt 0.841844 0.471731
vt 0.883337 0.449553
vt 0.919706 0.419706
vt 0.949553 0.383337
vt 0.971731 0.341844
vt 0.985388 0.296822
vt 0.990000 0.250000
vt 0.985388 0.203178
vt 0.971731 0.158156
vt 0.949553 0.116663
vt 0.919706 0.080294
vt 0.883337 0.050447
vt 0.841844 0.028269
vt 0.796822 0.014612
vt 0.750000 0.010000
vt 0.703178 0.014612
vt 0.658156 0.028269
vt 0.616663 0.050447
vt 0.580294 0.080294
vt 0.550447 0.116663
vt 0.528269 0.158156
vt 0.514611 0.203179
vt 0.510000 0.250000
vt 0.514612 0.296822
vt 0.528269 0.341844
vt 0.550447 0.383337
vt 0.580295 0.419706
vt 0.616663 0.449553
vt 0.658156 0.471731
vt 0.703179 0.485389
vn -0.9888 0.0146 0.1483
vn -0.9871 0.0449 0.1540
vn -0.9829 0.0788 0.1664
vn -0.9748 0.1200 0.1882
vn -0.9584 0.1752 0.2255
vn -0.9210 0.2584 0.2916
vn -0.8141 0.4025 0.4186
vn -0.4211 0.6414 0.6414
vn 0.4211 0.6414 0.6414
vn 0.8141 0.4025 0.4186
vn 0.9210 0.2584 0.2916
vn 0.9584 0.1752 0.2255
vn 0.9748 0.1200 0.1882
vn 0.9829 0.0788 0.1664
vn 0.9871 0.0449 0.1540
vn 0.9888 0.0146 0.1483
vn 0.9888 -0.0146 0.1483
vn 0.9871 -0.0449 0.1540
vn 0.9829 -0.0788 0.1664
vn 0.9748 -0.1200 0.1882
vn 0.9584 -0.1752 0.2255
vn 0.9210 -0.2584 0.2916
vn 0.8141 -0.4025 0.4186
vn 0.4211 -0.6414 0.6414
vn -0.4211 -0.6413 0.6413
vn -0.8141 -0.4025 0.4186
vn -0.9210 -0.2584 0.2916
vn -0.9584 -0.1752 0.2255
vn -0.9748 -0.1200 0.1882
vn -0.9829 -0.0788 0.1664
vn -0.9871 -0.0449 0.1540
vn -0.9888 -0.0146 0.1483
vn 0.0000 0.0000 -1.0000
usemtl None
s off
f 131/261/101 154/262/101 132/263/101
f 132/263/102 154/262/102 133/264/102
f 133/264/103 154/262/103 134/265/103
f 134/265/104 154/262/104 135/266/104
f 135/266/105 154/262/105 136/267/105
f 136/267/106 154/262/106 137/268/106
f 137/268/107 154/262/107 138/269/107
f 138/269/108 154/262/108 139/270/108
f 139/270/109 154/262/109 140/271/109
f 140/271/110 154/262/110 141/272/110
f 141/272/111 154/262/111 142/273/111
f 142/273/112 154/262/112 143/274/112
f 143/274/113 154/262/113 144/275/113
f 144/275/114 154/262/114 145/276/114
f 145/276/115 154/262/115 146/277/115
f 146/277/116 154/262/116 147/278/116
f 147/278/117 154/262/117 148/279/117
f 148/279/118 154/262/118 149/280/118
f 149/280/119 154/262/119 150/281/119
f 150/281/120 154/262/120 151/282/120
f 151/282/121 154/262/121 152/283/121
f 152/283/122 154/262/122 153/284/122
f 153/284/123 154/262/123 155/285/123
f 155/285/124 154/262/124 156/286/124
f 156/286/125 154/262/125 157/287/125
f 157/287/126 154/262/126 158/288/126
f 158/288/127 154/262/127 159/289/127
f 159/289/128 154/262/128 160/290/128
f 160/290/129 154/262/129 161/291/129
f 161/291/130 154/262/130 162/292/130
f 162/292/131 154/262/131 163/293/131
f 163/293/132 154/262/132 131/261/132
f 131/294/133 132/295/133 133/296/133 134/297/133 135/298/133 136/299/133 137/300/133 138/301/133 139/302/133 140/303/133 141/304/133 142/305/133 143/306/133 144/307/133 145/308/133 146/309/133 147/310/133 148/311/133 149/312/133 150/313/133 151/314/133 152/315/133 153/316/133 155/317/133 156/318/133 157/319/133 158/320/133 159/321/133 160/322/133 161/323/133 162/324/133 163/325/133
